<?xml version='1.0' encoding='UTF-8' standalone='no'?>
<!-- Created with Fritzing (http://www.fritzing.org/) -->
<svg xmlns:svg='http://www.w3.org/2000/svg' xmlns='http://www.w3.org/2000/svg' version='1.2' baseProfile='tiny' x='0in' y='0in' width='2.73172in' height='1.28745in' viewBox='0 0 196.684 92.6965' >
<g partID='854377580'><g transform='translate(155.384,71.789)' ><g transform='matrix(-1,0,0,-1,0,0)'  ><g id="schematic">
<g>
<path d="M13.5,14.966L9.9,14.966c-0.193,0,-0.35,-0.156,-0.35,-0.35s0.156,-0.35,0.35,-0.35L13.5,14.266c0.193,0,0.35,0.156,0.35,0.35S13.694,14.966,13.5,14.966z"/>
</g>
<g>
<path d="M9.9,14.966L6.3,14.966c-0.193,0,-0.35,-0.156,-0.35,-0.35s0.157,-0.35,0.35,-0.35l3.6,0c0.193,0,0.35,0.156,0.35,0.35S10.093,14.966,9.9,14.966z"/>
</g>
<g>
<polygon points="9.9,14.616,6.3,7.416,9.9,7.416,13.5,7.416" fill="#FFFFFF"/>
<path d="M9.9,15.398L5.734,7.066l8.333,0L9.9,15.398zM6.866,7.766L9.9,13.834l3.034,-6.068L6.866,7.766z"/>
</g>
<g>
<path d="M9.9,14.841c-0.124,0,-0.225,-0.101,-0.225,-0.225l0,-7.2c0,-0.124,0.101,-0.225,0.225,-0.225s0.225,0.101,0.225,0.225l0,7.2C10.124,14.74,10.024,14.841,9.9,14.841z"/>
</g>
<g>
<path d="M1.8,12.141c-0.058,0,-0.115,-0.021,-0.159,-0.065c-0.088,-0.088,-0.088,-0.23,0,-0.318l2.34,-2.341c0.088,-0.088,0.23,-0.088,0.318,0s0.088,0.23,0,0.318l-2.34,2.341C1.915,12.12,1.858,12.141,1.8,12.141z"/>
</g>
<g>
<path d="M2.16,15.381c-0.058,0,-0.115,-0.021,-0.159,-0.065c-0.088,-0.088,-0.088,-0.23,0,-0.318l2.34,-2.34c0.088,-0.088,0.23,-0.088,0.318,0s0.088,0.23,0,0.318l-2.34,2.34C2.276,15.359,2.218,15.381,2.16,15.381z"/>
</g>
<g id="connector0pin">
<path d="M9.9,22.166c-0.193,0,-0.35,-0.156,-0.35,-0.35l0,-7.2c0,-0.193,0.156,-0.35,0.35,-0.35s0.35,0.156,0.35,0.35l0,7.2C10.249,22.01,10.093,22.166,9.9,22.166z" fill="#787878"/>
</g>
<g id="connector0terminal">
<rect y="21.816" x="9.9" width="0.001" height="0.001" fill="none"/>
</g>
<g transform="matrix(1, 0, 0, 1, 3.429, 6.4262)">
<g>
<g transform="rotate(270)">
<g>
<g enable-background="new    ">
<path d="M-11.647,5.54l-0.891,0L-12.538,5.388l0.342,-0.372c0.049,-0.053,0.093,-0.101,0.131,-0.145s0.071,-0.086,0.099,-0.128c0.026,-0.042,0.047,-0.084,0.062,-0.125c0.015,-0.043,0.021,-0.088,0.021,-0.138c0,-0.038,-0.005,-0.072,-0.017,-0.102s-0.027,-0.054,-0.047,-0.075c-0.021,-0.02,-0.045,-0.035,-0.073,-0.046s-0.06,-0.016,-0.094,-0.016c-0.062,0,-0.118,0.013,-0.167,0.038c-0.051,0.024,-0.098,0.057,-0.143,0.096l-0.1,-0.116c0.025,-0.023,0.055,-0.046,0.084,-0.065c0.029,-0.021,0.063,-0.039,0.097,-0.054s0.071,-0.026,0.109,-0.036c0.038,-0.008,0.079,-0.013,0.121,-0.013c0.063,0,0.119,0.009,0.169,0.026c0.051,0.018,0.094,0.043,0.129,0.076c0.035,0.032,0.063,0.072,0.082,0.119c0.019,0.048,0.028,0.101,0.028,0.16c0,0.056,-0.009,0.108,-0.026,0.158c-0.017,0.05,-0.041,0.1,-0.07,0.148c-0.031,0.048,-0.066,0.097,-0.109,0.146c-0.041,0.049,-0.087,0.1,-0.136,0.152L-12.32,5.37l0,0.008l0.673,0L-11.647,5.54z" fill="#787878"/>
</g>
</g>
</g>
</g>
</g>
<g id="connector1pin">
<path d="M9.9,7.766c-0.193,0,-0.35,-0.157,-0.35,-0.35l0,-7.2c0,-0.193,0.156,-0.35,0.35,-0.35s0.35,0.157,0.35,0.35l0,7.2C10.249,7.609,10.093,7.766,9.9,7.766z" fill="#787878"/>
</g>
<g id="connector1terminal">
<polygon points="9.9,0.216,9.901,0.216,9.901,0.216" fill="none"/>
</g>
<g transform="matrix(1, 0, 0, 1, 3.429, 1.3462)">
<g>
<g transform="rotate(270)">
<g>
<g enable-background="new    ">
<path d="M-2.616,5.54l-0.172,0L-2.788,4.648c0,-0.028,0,-0.058,0,-0.09s0.001,-0.063,0.002,-0.095c0.001,-0.032,0.002,-0.063,0.003,-0.092c0.001,-0.028,0.002,-0.054,0.002,-0.076c-0.011,0.012,-0.021,0.021,-0.029,0.03s-0.017,0.017,-0.026,0.024s-0.018,0.016,-0.028,0.025c-0.01,0.008,-0.021,0.019,-0.035,0.03l-0.145,0.118l-0.094,-0.12l0.374,-0.292l0.146,0L-2.618,5.54z" fill="#787878"/>
</g>
</g>
</g>
</g>
</g>
<g>
<path d="M0.18,13.536l1.08,-2.521l1.44,1.438L0.18,13.536z"/>
</g>
<g>
<path d="M0.54,16.776l1.08,-2.521l1.438,1.438L0.54,16.776z"/>
</g>
</g>
</g></g></g><g partID='854377600'><g transform='translate(157.183,49.757)' ><g id="schematic">
<g>
<path d="M13.5,14.966L9.9,14.966c-0.193,0,-0.35,-0.156,-0.35,-0.35s0.156,-0.35,0.35,-0.35L13.5,14.266c0.193,0,0.35,0.156,0.35,0.35S13.694,14.966,13.5,14.966z"/>
</g>
<g>
<path d="M9.9,14.966L6.3,14.966c-0.193,0,-0.35,-0.156,-0.35,-0.35s0.157,-0.35,0.35,-0.35l3.6,0c0.193,0,0.35,0.156,0.35,0.35S10.093,14.966,9.9,14.966z"/>
</g>
<g>
<polygon points="9.9,14.616,6.3,7.416,9.9,7.416,13.5,7.416" fill="#FFFFFF"/>
<path d="M9.9,15.398L5.734,7.066l8.333,0L9.9,15.398zM6.866,7.766L9.9,13.834l3.034,-6.068L6.866,7.766z"/>
</g>
<g>
<path d="M9.9,14.841c-0.124,0,-0.225,-0.101,-0.225,-0.225l0,-7.2c0,-0.124,0.101,-0.225,0.225,-0.225s0.225,0.101,0.225,0.225l0,7.2C10.124,14.74,10.024,14.841,9.9,14.841z"/>
</g>
<g>
<path d="M1.8,12.141c-0.058,0,-0.115,-0.021,-0.159,-0.065c-0.088,-0.088,-0.088,-0.23,0,-0.318l2.34,-2.341c0.088,-0.088,0.23,-0.088,0.318,0s0.088,0.23,0,0.318l-2.34,2.341C1.915,12.12,1.858,12.141,1.8,12.141z"/>
</g>
<g>
<path d="M2.16,15.381c-0.058,0,-0.115,-0.021,-0.159,-0.065c-0.088,-0.088,-0.088,-0.23,0,-0.318l2.34,-2.34c0.088,-0.088,0.23,-0.088,0.318,0s0.088,0.23,0,0.318l-2.34,2.34C2.276,15.359,2.218,15.381,2.16,15.381z"/>
</g>
<g id="connector0pin">
<path d="M9.9,22.166c-0.193,0,-0.35,-0.156,-0.35,-0.35l0,-7.2c0,-0.193,0.156,-0.35,0.35,-0.35s0.35,0.156,0.35,0.35l0,7.2C10.249,22.01,10.093,22.166,9.9,22.166z" fill="#787878"/>
</g>
<g id="connector0terminal">
<rect y="21.816" x="9.9" width="0.001" height="0.001" fill="none"/>
</g>
<g transform="matrix(1, 0, 0, 1, 3.429, 6.4262)">
<g>
<g transform="rotate(270)">
<g>
<g enable-background="new    ">
<path d="M-11.647,5.54l-0.891,0L-12.538,5.388l0.342,-0.372c0.049,-0.053,0.093,-0.101,0.131,-0.145s0.071,-0.086,0.099,-0.128c0.026,-0.042,0.047,-0.084,0.062,-0.125c0.015,-0.043,0.021,-0.088,0.021,-0.138c0,-0.038,-0.005,-0.072,-0.017,-0.102s-0.027,-0.054,-0.047,-0.075c-0.021,-0.02,-0.045,-0.035,-0.073,-0.046s-0.06,-0.016,-0.094,-0.016c-0.062,0,-0.118,0.013,-0.167,0.038c-0.051,0.024,-0.098,0.057,-0.143,0.096l-0.1,-0.116c0.025,-0.023,0.055,-0.046,0.084,-0.065c0.029,-0.021,0.063,-0.039,0.097,-0.054s0.071,-0.026,0.109,-0.036c0.038,-0.008,0.079,-0.013,0.121,-0.013c0.063,0,0.119,0.009,0.169,0.026c0.051,0.018,0.094,0.043,0.129,0.076c0.035,0.032,0.063,0.072,0.082,0.119c0.019,0.048,0.028,0.101,0.028,0.16c0,0.056,-0.009,0.108,-0.026,0.158c-0.017,0.05,-0.041,0.1,-0.07,0.148c-0.031,0.048,-0.066,0.097,-0.109,0.146c-0.041,0.049,-0.087,0.1,-0.136,0.152L-12.32,5.37l0,0.008l0.673,0L-11.647,5.54z" fill="#787878"/>
</g>
</g>
</g>
</g>
</g>
<g id="connector1pin">
<path d="M9.9,7.766c-0.193,0,-0.35,-0.157,-0.35,-0.35l0,-7.2c0,-0.193,0.156,-0.35,0.35,-0.35s0.35,0.157,0.35,0.35l0,7.2C10.249,7.609,10.093,7.766,9.9,7.766z" fill="#787878"/>
</g>
<g id="connector1terminal">
<polygon points="9.9,0.216,9.901,0.216,9.901,0.216" fill="none"/>
</g>
<g transform="matrix(1, 0, 0, 1, 3.429, 1.3462)">
<g>
<g transform="rotate(270)">
<g>
<g enable-background="new    ">
<path d="M-2.616,5.54l-0.172,0L-2.788,4.648c0,-0.028,0,-0.058,0,-0.09s0.001,-0.063,0.002,-0.095c0.001,-0.032,0.002,-0.063,0.003,-0.092c0.001,-0.028,0.002,-0.054,0.002,-0.076c-0.011,0.012,-0.021,0.021,-0.029,0.03s-0.017,0.017,-0.026,0.024s-0.018,0.016,-0.028,0.025c-0.01,0.008,-0.021,0.019,-0.035,0.03l-0.145,0.118l-0.094,-0.12l0.374,-0.292l0.146,0L-2.618,5.54z" fill="#787878"/>
</g>
</g>
</g>
</g>
</g>
<g>
<path d="M0.18,13.536l1.08,-2.521l1.44,1.438L0.18,13.536z"/>
</g>
<g>
<path d="M0.54,16.776l1.08,-2.521l1.438,1.438L0.54,16.776z"/>
</g>
</g>
</g></g><g partID='854376830'><g transform='translate(155.384,50.189)' ><g transform='matrix(-1,0,0,-1,0,0)'  ><g id="schematic">
<g>
<path d="M13.5,14.966L9.9,14.966c-0.193,0,-0.35,-0.156,-0.35,-0.35s0.156,-0.35,0.35,-0.35L13.5,14.266c0.193,0,0.35,0.156,0.35,0.35S13.694,14.966,13.5,14.966z"/>
</g>
<g>
<path d="M9.9,14.966L6.3,14.966c-0.193,0,-0.35,-0.156,-0.35,-0.35s0.157,-0.35,0.35,-0.35l3.6,0c0.193,0,0.35,0.156,0.35,0.35S10.093,14.966,9.9,14.966z"/>
</g>
<g>
<polygon points="9.9,14.616,6.3,7.416,9.9,7.416,13.5,7.416" fill="#FFFFFF"/>
<path d="M9.9,15.398L5.734,7.066l8.333,0L9.9,15.398zM6.866,7.766L9.9,13.834l3.034,-6.068L6.866,7.766z"/>
</g>
<g>
<path d="M9.9,14.841c-0.124,0,-0.225,-0.101,-0.225,-0.225l0,-7.2c0,-0.124,0.101,-0.225,0.225,-0.225s0.225,0.101,0.225,0.225l0,7.2C10.124,14.74,10.024,14.841,9.9,14.841z"/>
</g>
<g>
<path d="M1.8,12.141c-0.058,0,-0.115,-0.021,-0.159,-0.065c-0.088,-0.088,-0.088,-0.23,0,-0.318l2.34,-2.341c0.088,-0.088,0.23,-0.088,0.318,0s0.088,0.23,0,0.318l-2.34,2.341C1.915,12.12,1.858,12.141,1.8,12.141z"/>
</g>
<g>
<path d="M2.16,15.381c-0.058,0,-0.115,-0.021,-0.159,-0.065c-0.088,-0.088,-0.088,-0.23,0,-0.318l2.34,-2.34c0.088,-0.088,0.23,-0.088,0.318,0s0.088,0.23,0,0.318l-2.34,2.34C2.276,15.359,2.218,15.381,2.16,15.381z"/>
</g>
<g id="connector0pin">
<path d="M9.9,22.166c-0.193,0,-0.35,-0.156,-0.35,-0.35l0,-7.2c0,-0.193,0.156,-0.35,0.35,-0.35s0.35,0.156,0.35,0.35l0,7.2C10.249,22.01,10.093,22.166,9.9,22.166z" fill="#787878"/>
</g>
<g id="connector0terminal">
<rect y="21.816" x="9.9" width="0.001" height="0.001" fill="none"/>
</g>
<g transform="matrix(1, 0, 0, 1, 3.429, 6.4262)">
<g>
<g transform="rotate(270)">
<g>
<g enable-background="new    ">
<path d="M-11.647,5.54l-0.891,0L-12.538,5.388l0.342,-0.372c0.049,-0.053,0.093,-0.101,0.131,-0.145s0.071,-0.086,0.099,-0.128c0.026,-0.042,0.047,-0.084,0.062,-0.125c0.015,-0.043,0.021,-0.088,0.021,-0.138c0,-0.038,-0.005,-0.072,-0.017,-0.102s-0.027,-0.054,-0.047,-0.075c-0.021,-0.02,-0.045,-0.035,-0.073,-0.046s-0.06,-0.016,-0.094,-0.016c-0.062,0,-0.118,0.013,-0.167,0.038c-0.051,0.024,-0.098,0.057,-0.143,0.096l-0.1,-0.116c0.025,-0.023,0.055,-0.046,0.084,-0.065c0.029,-0.021,0.063,-0.039,0.097,-0.054s0.071,-0.026,0.109,-0.036c0.038,-0.008,0.079,-0.013,0.121,-0.013c0.063,0,0.119,0.009,0.169,0.026c0.051,0.018,0.094,0.043,0.129,0.076c0.035,0.032,0.063,0.072,0.082,0.119c0.019,0.048,0.028,0.101,0.028,0.16c0,0.056,-0.009,0.108,-0.026,0.158c-0.017,0.05,-0.041,0.1,-0.07,0.148c-0.031,0.048,-0.066,0.097,-0.109,0.146c-0.041,0.049,-0.087,0.1,-0.136,0.152L-12.32,5.37l0,0.008l0.673,0L-11.647,5.54z" fill="#787878"/>
</g>
</g>
</g>
</g>
</g>
<g id="connector1pin">
<path d="M9.9,7.766c-0.193,0,-0.35,-0.157,-0.35,-0.35l0,-7.2c0,-0.193,0.156,-0.35,0.35,-0.35s0.35,0.157,0.35,0.35l0,7.2C10.249,7.609,10.093,7.766,9.9,7.766z" fill="#787878"/>
</g>
<g id="connector1terminal">
<polygon points="9.9,0.216,9.901,0.216,9.901,0.216" fill="none"/>
</g>
<g transform="matrix(1, 0, 0, 1, 3.429, 1.3462)">
<g>
<g transform="rotate(270)">
<g>
<g enable-background="new    ">
<path d="M-2.616,5.54l-0.172,0L-2.788,4.648c0,-0.028,0,-0.058,0,-0.09s0.001,-0.063,0.002,-0.095c0.001,-0.032,0.002,-0.063,0.003,-0.092c0.001,-0.028,0.002,-0.054,0.002,-0.076c-0.011,0.012,-0.021,0.021,-0.029,0.03s-0.017,0.017,-0.026,0.024s-0.018,0.016,-0.028,0.025c-0.01,0.008,-0.021,0.019,-0.035,0.03l-0.145,0.118l-0.094,-0.12l0.374,-0.292l0.146,0L-2.618,5.54z" fill="#787878"/>
</g>
</g>
</g>
</g>
</g>
<g>
<path d="M0.18,13.536l1.08,-2.521l1.44,1.438L0.18,13.536z"/>
</g>
<g>
<path d="M0.54,16.776l1.08,-2.521l1.438,1.438L0.54,16.776z"/>
</g>
</g>
</g></g></g><g partID='854376860'><g transform='translate(121.183,28.157)' ><g id="schematic">
<g>
<path d="M13.5,14.966L9.9,14.966c-0.193,0,-0.35,-0.156,-0.35,-0.35s0.156,-0.35,0.35,-0.35L13.5,14.266c0.193,0,0.35,0.156,0.35,0.35S13.694,14.966,13.5,14.966z"/>
</g>
<g>
<path d="M9.9,14.966L6.3,14.966c-0.193,0,-0.35,-0.156,-0.35,-0.35s0.157,-0.35,0.35,-0.35l3.6,0c0.193,0,0.35,0.156,0.35,0.35S10.093,14.966,9.9,14.966z"/>
</g>
<g>
<polygon points="9.9,14.616,6.3,7.416,9.9,7.416,13.5,7.416" fill="#FFFFFF"/>
<path d="M9.9,15.398L5.734,7.066l8.333,0L9.9,15.398zM6.866,7.766L9.9,13.834l3.034,-6.068L6.866,7.766z"/>
</g>
<g>
<path d="M9.9,14.841c-0.124,0,-0.225,-0.101,-0.225,-0.225l0,-7.2c0,-0.124,0.101,-0.225,0.225,-0.225s0.225,0.101,0.225,0.225l0,7.2C10.124,14.74,10.024,14.841,9.9,14.841z"/>
</g>
<g>
<path d="M1.8,12.141c-0.058,0,-0.115,-0.021,-0.159,-0.065c-0.088,-0.088,-0.088,-0.23,0,-0.318l2.34,-2.341c0.088,-0.088,0.23,-0.088,0.318,0s0.088,0.23,0,0.318l-2.34,2.341C1.915,12.12,1.858,12.141,1.8,12.141z"/>
</g>
<g>
<path d="M2.16,15.381c-0.058,0,-0.115,-0.021,-0.159,-0.065c-0.088,-0.088,-0.088,-0.23,0,-0.318l2.34,-2.34c0.088,-0.088,0.23,-0.088,0.318,0s0.088,0.23,0,0.318l-2.34,2.34C2.276,15.359,2.218,15.381,2.16,15.381z"/>
</g>
<g id="connector0pin">
<path d="M9.9,22.166c-0.193,0,-0.35,-0.156,-0.35,-0.35l0,-7.2c0,-0.193,0.156,-0.35,0.35,-0.35s0.35,0.156,0.35,0.35l0,7.2C10.249,22.01,10.093,22.166,9.9,22.166z" fill="#787878"/>
</g>
<g id="connector0terminal">
<rect y="21.816" x="9.9" width="0.001" height="0.001" fill="none"/>
</g>
<g transform="matrix(1, 0, 0, 1, 3.429, 6.4262)">
<g>
<g transform="rotate(270)">
<g>
<g enable-background="new    ">
<path d="M-11.647,5.54l-0.891,0L-12.538,5.388l0.342,-0.372c0.049,-0.053,0.093,-0.101,0.131,-0.145s0.071,-0.086,0.099,-0.128c0.026,-0.042,0.047,-0.084,0.062,-0.125c0.015,-0.043,0.021,-0.088,0.021,-0.138c0,-0.038,-0.005,-0.072,-0.017,-0.102s-0.027,-0.054,-0.047,-0.075c-0.021,-0.02,-0.045,-0.035,-0.073,-0.046s-0.06,-0.016,-0.094,-0.016c-0.062,0,-0.118,0.013,-0.167,0.038c-0.051,0.024,-0.098,0.057,-0.143,0.096l-0.1,-0.116c0.025,-0.023,0.055,-0.046,0.084,-0.065c0.029,-0.021,0.063,-0.039,0.097,-0.054s0.071,-0.026,0.109,-0.036c0.038,-0.008,0.079,-0.013,0.121,-0.013c0.063,0,0.119,0.009,0.169,0.026c0.051,0.018,0.094,0.043,0.129,0.076c0.035,0.032,0.063,0.072,0.082,0.119c0.019,0.048,0.028,0.101,0.028,0.16c0,0.056,-0.009,0.108,-0.026,0.158c-0.017,0.05,-0.041,0.1,-0.07,0.148c-0.031,0.048,-0.066,0.097,-0.109,0.146c-0.041,0.049,-0.087,0.1,-0.136,0.152L-12.32,5.37l0,0.008l0.673,0L-11.647,5.54z" fill="#787878"/>
</g>
</g>
</g>
</g>
</g>
<g id="connector1pin">
<path d="M9.9,7.766c-0.193,0,-0.35,-0.157,-0.35,-0.35l0,-7.2c0,-0.193,0.156,-0.35,0.35,-0.35s0.35,0.157,0.35,0.35l0,7.2C10.249,7.609,10.093,7.766,9.9,7.766z" fill="#787878"/>
</g>
<g id="connector1terminal">
<polygon points="9.9,0.216,9.901,0.216,9.901,0.216" fill="none"/>
</g>
<g transform="matrix(1, 0, 0, 1, 3.429, 1.3462)">
<g>
<g transform="rotate(270)">
<g>
<g enable-background="new    ">
<path d="M-2.616,5.54l-0.172,0L-2.788,4.648c0,-0.028,0,-0.058,0,-0.09s0.001,-0.063,0.002,-0.095c0.001,-0.032,0.002,-0.063,0.003,-0.092c0.001,-0.028,0.002,-0.054,0.002,-0.076c-0.011,0.012,-0.021,0.021,-0.029,0.03s-0.017,0.017,-0.026,0.024s-0.018,0.016,-0.028,0.025c-0.01,0.008,-0.021,0.019,-0.035,0.03l-0.145,0.118l-0.094,-0.12l0.374,-0.292l0.146,0L-2.618,5.54z" fill="#787878"/>
</g>
</g>
</g>
</g>
</g>
<g>
<path d="M0.18,13.536l1.08,-2.521l1.44,1.438L0.18,13.536z"/>
</g>
<g>
<path d="M0.54,16.776l1.08,-2.521l1.438,1.438L0.54,16.776z"/>
</g>
</g>
</g></g><g partID='854376890'><g transform='translate(121.183,49.757)' ><g id="schematic">
<g>
<path d="M13.5,14.966L9.9,14.966c-0.193,0,-0.35,-0.156,-0.35,-0.35s0.156,-0.35,0.35,-0.35L13.5,14.266c0.193,0,0.35,0.156,0.35,0.35S13.694,14.966,13.5,14.966z"/>
</g>
<g>
<path d="M9.9,14.966L6.3,14.966c-0.193,0,-0.35,-0.156,-0.35,-0.35s0.157,-0.35,0.35,-0.35l3.6,0c0.193,0,0.35,0.156,0.35,0.35S10.093,14.966,9.9,14.966z"/>
</g>
<g>
<polygon points="9.9,14.616,6.3,7.416,9.9,7.416,13.5,7.416" fill="#FFFFFF"/>
<path d="M9.9,15.398L5.734,7.066l8.333,0L9.9,15.398zM6.866,7.766L9.9,13.834l3.034,-6.068L6.866,7.766z"/>
</g>
<g>
<path d="M9.9,14.841c-0.124,0,-0.225,-0.101,-0.225,-0.225l0,-7.2c0,-0.124,0.101,-0.225,0.225,-0.225s0.225,0.101,0.225,0.225l0,7.2C10.124,14.74,10.024,14.841,9.9,14.841z"/>
</g>
<g>
<path d="M1.8,12.141c-0.058,0,-0.115,-0.021,-0.159,-0.065c-0.088,-0.088,-0.088,-0.23,0,-0.318l2.34,-2.341c0.088,-0.088,0.23,-0.088,0.318,0s0.088,0.23,0,0.318l-2.34,2.341C1.915,12.12,1.858,12.141,1.8,12.141z"/>
</g>
<g>
<path d="M2.16,15.381c-0.058,0,-0.115,-0.021,-0.159,-0.065c-0.088,-0.088,-0.088,-0.23,0,-0.318l2.34,-2.34c0.088,-0.088,0.23,-0.088,0.318,0s0.088,0.23,0,0.318l-2.34,2.34C2.276,15.359,2.218,15.381,2.16,15.381z"/>
</g>
<g id="connector0pin">
<path d="M9.9,22.166c-0.193,0,-0.35,-0.156,-0.35,-0.35l0,-7.2c0,-0.193,0.156,-0.35,0.35,-0.35s0.35,0.156,0.35,0.35l0,7.2C10.249,22.01,10.093,22.166,9.9,22.166z" fill="#787878"/>
</g>
<g id="connector0terminal">
<rect y="21.816" x="9.9" width="0.001" height="0.001" fill="none"/>
</g>
<g transform="matrix(1, 0, 0, 1, 3.429, 6.4262)">
<g>
<g transform="rotate(270)">
<g>
<g enable-background="new    ">
<path d="M-11.647,5.54l-0.891,0L-12.538,5.388l0.342,-0.372c0.049,-0.053,0.093,-0.101,0.131,-0.145s0.071,-0.086,0.099,-0.128c0.026,-0.042,0.047,-0.084,0.062,-0.125c0.015,-0.043,0.021,-0.088,0.021,-0.138c0,-0.038,-0.005,-0.072,-0.017,-0.102s-0.027,-0.054,-0.047,-0.075c-0.021,-0.02,-0.045,-0.035,-0.073,-0.046s-0.06,-0.016,-0.094,-0.016c-0.062,0,-0.118,0.013,-0.167,0.038c-0.051,0.024,-0.098,0.057,-0.143,0.096l-0.1,-0.116c0.025,-0.023,0.055,-0.046,0.084,-0.065c0.029,-0.021,0.063,-0.039,0.097,-0.054s0.071,-0.026,0.109,-0.036c0.038,-0.008,0.079,-0.013,0.121,-0.013c0.063,0,0.119,0.009,0.169,0.026c0.051,0.018,0.094,0.043,0.129,0.076c0.035,0.032,0.063,0.072,0.082,0.119c0.019,0.048,0.028,0.101,0.028,0.16c0,0.056,-0.009,0.108,-0.026,0.158c-0.017,0.05,-0.041,0.1,-0.07,0.148c-0.031,0.048,-0.066,0.097,-0.109,0.146c-0.041,0.049,-0.087,0.1,-0.136,0.152L-12.32,5.37l0,0.008l0.673,0L-11.647,5.54z" fill="#787878"/>
</g>
</g>
</g>
</g>
</g>
<g id="connector1pin">
<path d="M9.9,7.766c-0.193,0,-0.35,-0.157,-0.35,-0.35l0,-7.2c0,-0.193,0.156,-0.35,0.35,-0.35s0.35,0.157,0.35,0.35l0,7.2C10.249,7.609,10.093,7.766,9.9,7.766z" fill="#787878"/>
</g>
<g id="connector1terminal">
<polygon points="9.9,0.216,9.901,0.216,9.901,0.216" fill="none"/>
</g>
<g transform="matrix(1, 0, 0, 1, 3.429, 1.3462)">
<g>
<g transform="rotate(270)">
<g>
<g enable-background="new    ">
<path d="M-2.616,5.54l-0.172,0L-2.788,4.648c0,-0.028,0,-0.058,0,-0.09s0.001,-0.063,0.002,-0.095c0.001,-0.032,0.002,-0.063,0.003,-0.092c0.001,-0.028,0.002,-0.054,0.002,-0.076c-0.011,0.012,-0.021,0.021,-0.029,0.03s-0.017,0.017,-0.026,0.024s-0.018,0.016,-0.028,0.025c-0.01,0.008,-0.021,0.019,-0.035,0.03l-0.145,0.118l-0.094,-0.12l0.374,-0.292l0.146,0L-2.618,5.54z" fill="#787878"/>
</g>
</g>
</g>
</g>
</g>
<g>
<path d="M0.18,13.536l1.08,-2.521l1.44,1.438L0.18,13.536z"/>
</g>
<g>
<path d="M0.54,16.776l1.08,-2.521l1.438,1.438L0.54,16.776z"/>
</g>
</g>
</g></g><g partID='854378690'><g transform='translate(163.987,50.3233)' ><g transform='matrix(0,-1,1,0,0,0)'  ><g xmlns="http://www.w3.org/2000/svg" id="schematic">
<line stroke="#000000" xmlns="http://www.w3.org/2000/svg" x1="7.55002" class="other" x2="8.63003" y2="0.216" stroke-linecap="round" y1="3.096" stroke-width="0.432002"/>
<line stroke="#000000" xmlns="http://www.w3.org/2000/svg" x1="8.63003" class="other" x2="10.43" y2="5.976" stroke-linecap="round" y1="0.216" stroke-width="0.432002"/>
<line stroke="#000000" xmlns="http://www.w3.org/2000/svg" x1="10.43" class="other" x2="12.23" y2="0.216" stroke-linecap="round" y1="5.976" stroke-width="0.432002"/>
<line stroke="#000000" xmlns="http://www.w3.org/2000/svg" x1="12.23" class="other" x2="14.03" y2="5.976" stroke-linecap="round" y1="0.216" stroke-width="0.432002"/>
<line stroke="#000000" xmlns="http://www.w3.org/2000/svg" x1="14.03" class="other" x2="15.8301" y2="0.216" stroke-linecap="round" y1="5.976" stroke-width="0.432002"/>
<line stroke="#000000" xmlns="http://www.w3.org/2000/svg" x1="15.8301" class="other" x2="17.6301" y2="5.976" stroke-linecap="round" y1="0.216" stroke-width="0.432002"/>
<line stroke="#000000" xmlns="http://www.w3.org/2000/svg" x1="17.6301" class="other" x2="19.4301" y2="0.216" stroke-linecap="round" y1="5.976" stroke-width="0.432002"/>
<line stroke="#000000" xmlns="http://www.w3.org/2000/svg" x1="19.4301" class="other" x2="21.2301" y2="5.976" stroke-linecap="round" y1="0.216" stroke-width="0.432002"/>
<line stroke="#000000" xmlns="http://www.w3.org/2000/svg" x1="21.2301" class="other" x2="21.9501" y2="3.096" stroke-linecap="round" y1="5.976" stroke-width="0.432002"/>
<line stroke="#787878" xmlns="http://www.w3.org/2000/svg" id="connector1pin" connectorname="2" x1="29.1502" class="pin" x2="21.9501" y2="3.096" stroke-linecap="round" y1="3.096" stroke-width="0.700001"/>
<g stroke="none" y="3.096" xmlns="http://www.w3.org/2000/svg" id="connector1terminal" x="29.1502" width="0.000283466" height="0.000283465" class="terminal" stroke-width="0" fill="none"/>
<text stroke="none" font-family="'Droid Sans'" y="2.046" xmlns="http://www.w3.org/2000/svg" font-size="2.50001" x="25.5501" text-anchor="middle" class="text" stroke-width="0" fill="#8c8c8c">2</text>
<line stroke="#787878" xmlns="http://www.w3.org/2000/svg" id="connector0pin" connectorname="1" x1="0.350001" class="pin" x2="7.55002" y2="3.096" stroke-linecap="round" y1="3.096" stroke-width="0.700001"/>
<g stroke="none" y="3.096" xmlns="http://www.w3.org/2000/svg" id="connector0terminal" x="0.350001" width="0.000283466" height="0.000283465" class="terminal" stroke-width="0" fill="none"/>
<text stroke="none" font-family="'Droid Sans'" y="2.046" xmlns="http://www.w3.org/2000/svg" font-size="2.50001" x="3.95001" text-anchor="middle" class="text" stroke-width="0" fill="#8c8c8c">1</text>
</g>
</g></g></g><g partID='854379080'><g transform='translate(59.0836,31.973)' ><g xmlns="http://www.w3.org/2000/svg" id="schematic">
<line stroke="#787878" stroke-linejoin="round" xmlns="http://www.w3.org/2000/svg" id="connector0pin" x1="0.349999" stroke-linecap="round" x2="13.7" y2="3.6" fill="none" stroke-width="0.699999" y1="3.6"/>
<g y="3.25" xmlns="http://www.w3.org/2000/svg" id="connector0terminal" x="0" width="0" height="0.699999"/>
<circle stroke="#787878" xmlns="http://www.w3.org/2000/svg" r="2.9" cy="3.6" cx="17.3" fill="none" stroke-width="0.699999"/>
<line stroke="#787878" stroke-linejoin="round" xmlns="http://www.w3.org/2000/svg" id="connector1pin" x1="0.349999" stroke-linecap="round" x2="13.7" y2="10.8" fill="none" stroke-width="0.699999" y1="10.8"/>
<g y="10.45" xmlns="http://www.w3.org/2000/svg" id="connector1terminal" x="0" width="0" height="0.699999"/>
<circle stroke="#787878" xmlns="http://www.w3.org/2000/svg" r="2.9" cy="10.8" cx="17.3" fill="none" stroke-width="0.699999"/>
</g>
</g></g><g partID='854379110'><g transform='translate(109.484,31.973)' ><g transform='matrix(-1,0,0,1,0,0)'  ><g xmlns="http://www.w3.org/2000/svg" id="schematic">
<line stroke="#787878" stroke-linejoin="round" xmlns="http://www.w3.org/2000/svg" id="connector0pin" x1="0.349999" stroke-linecap="round" x2="13.7" y2="3.6" fill="none" stroke-width="0.699999" y1="3.6"/>
<g y="3.25" xmlns="http://www.w3.org/2000/svg" id="connector0terminal" x="0" width="0" height="0.699999"/>
<circle stroke="#787878" xmlns="http://www.w3.org/2000/svg" r="2.9" cy="3.6" cx="17.3" fill="none" stroke-width="0.699999"/>
<line stroke="#787878" stroke-linejoin="round" xmlns="http://www.w3.org/2000/svg" id="connector1pin" x1="0.349999" stroke-linecap="round" x2="13.7" y2="10.8" fill="none" stroke-width="0.699999" y1="10.8"/>
<g y="10.45" xmlns="http://www.w3.org/2000/svg" id="connector1terminal" x="0" width="0" height="0.699999"/>
<circle stroke="#787878" xmlns="http://www.w3.org/2000/svg" r="2.9" cy="10.8" cx="17.3" fill="none" stroke-width="0.699999"/>
</g>
</g></g></g><g partID='854379730'><g transform='translate(22.7336,49.6229)' ><g id="schematic">
<circle stroke="#000000" r="0.359999" class="other" cy="20.1501" cx="21.9499" stroke-width="1.152" fill="none"/>
<circle stroke="#000000" r="0.359999" class="other" cy="9.35003" cx="21.9499" stroke-width="1.152" fill="none"/>
<rect stroke="none" y="18.3501" x="14.03" width="2.15999" height="3.60001" class="other" stroke-linecap="round" stroke-width="0" fill="#000000"/>
<rect stroke="none" y="7.55002" x="14.03" width="2.15999" height="3.60001" class="other" stroke-linecap="round" stroke-width="0" fill="#000000"/>
<rect stroke="none" y="12.23" x="14.03" width="2.15999" height="5.04002" class="other" stroke-linecap="round" stroke-width="0" fill="#000000"/>
<line stroke="#000000" x1="11.582" class="other" x2="11.582" y2="21.9501" stroke-linecap="round" y1="7.91002" stroke-width="0.719998"/>
<line stroke="#000000" x1="21.9499" class="other" x2="16.2619" y2="9.35003" stroke-linecap="round" y1="9.35003" stroke-width="0.431999"/>
<line stroke="#000000" x1="21.9499" class="other" x2="21.9499" y2="20.1501" stroke-linecap="round" y1="14.75" stroke-width="0.431999"/>
<line stroke="#000000" x1="16.1899" class="other" x2="21.9499" y2="20.1501" stroke-linecap="round" y1="20.1501" stroke-width="0.431999"/>
<line stroke="#000000" x1="21.9499" class="other" x2="21.9499" y2="9.35003" stroke-linecap="round" y1="7.55002" stroke-width="0.431999"/>
<line stroke="#000000" x1="21.9499" class="other" x2="29.15" y2="9.35003" stroke-linecap="round" y1="9.35003" stroke-width="0.431999"/>
<line stroke="#000000" x1="29.15" class="other" x2="21.9499" y2="20.1501" stroke-linecap="round" y1="20.1501" stroke-width="0.431999"/>
<line stroke="#000000" x1="21.9499" class="other" x2="21.9499" y2="21.9501" stroke-linecap="round" y1="20.1501" stroke-width="0.431999"/>
<line stroke="#000000" x1="11.15" class="other" x2="7.54997" y2="14.75" stroke-linecap="round" y1="14.75" stroke-width="0.431999"/>
<line stroke="#000000" x1="16.1899" class="other" x2="19.7899" y2="16.1901" stroke-linecap="round" y1="14.75" stroke-width="0.431999"/>
<line stroke="#000000" x1="19.7899" class="other" x2="19.7899" y2="13.31" stroke-linecap="round" y1="16.1901" stroke-width="0.431999"/>
<line stroke="#000000" x1="19.7899" class="other" x2="16.1899" y2="14.75" stroke-linecap="round" y1="13.31" stroke-width="0.431999"/>
<line stroke="#000000" x1="19.4299" class="other" x2="21.9499" y2="14.75" stroke-linecap="round" y1="14.75" stroke-width="0.431999"/>
<line stroke="#000000" x1="19.4299" class="other" x2="16.9099" y2="14.75" stroke-linecap="round" y1="14.03" stroke-width="0.863998"/>
<line stroke="#000000" x1="16.9099" class="other" x2="19.4299" y2="15.4701" stroke-linecap="round" y1="14.75" stroke-width="0.863998"/>
<line stroke="#000000" x1="19.4299" class="other" x2="19.4299" y2="14.75" stroke-linecap="round" y1="15.4701" stroke-width="0.863998"/>
<line stroke="#000000" x1="19.4299" class="other" x2="18.7099" y2="14.75" stroke-linecap="round" y1="14.75" stroke-width="0.863998"/>
<line stroke="#000000" x1="29.15" class="other" x2="29.15" y2="12.59" stroke-linecap="round" y1="9.35003" stroke-width="0.431999"/>
<line stroke="#000000" x1="29.15" class="other" x2="29.15" y2="20.1501" stroke-linecap="round" y1="12.59" stroke-width="0.431999"/>
<line stroke="#000000" x1="29.15" class="other" x2="27.3499" y2="16.5501" stroke-linecap="round" y1="12.59" stroke-width="0.431999"/>
<line stroke="#000000" x1="27.3499" class="other" x2="30.95" y2="16.5501" stroke-linecap="round" y1="16.5501" stroke-width="0.431999"/>
<line stroke="#000000" x1="30.95" class="other" x2="29.15" y2="12.59" stroke-linecap="round" y1="16.5501" stroke-width="0.431999"/>
<line stroke="#000000" x1="27.3499" class="other" x2="29.15" y2="12.59" stroke-linecap="round" y1="12.59" stroke-width="0.431999"/>
<line stroke="#000000" x1="29.15" class="other" x2="30.95" y2="12.59" stroke-linecap="round" y1="12.59" stroke-width="0.431999"/>
<line stroke="#000000" x1="30.95" class="other" x2="31.67" y2="11.87" stroke-linecap="round" y1="12.59" stroke-width="0.431999"/>
<line stroke="#000000" x1="27.3499" class="other" x2="26.6299" y2="13.31" stroke-linecap="round" y1="12.59" stroke-width="0.431999"/>
<line stroke="#787878" id="connector1pin" connectorname="D" x1="21.9499" class="pin" x2="21.9499" y2="7.55002" stroke-linecap="round" y1="0.350001" stroke-width="0.699997"/>
<g stroke="none" y="0.350001" id="connector1terminal" x="21.9499" width="0.000283464" height="0.000283466" class="terminal" stroke-width="0" fill="none"/>
<g transform="matrix(1, 0, 0, 1, 20.9, 3.95001)">
<g>
<g transform="rotate(270)">
<g>
<text stroke="none" font-family="'Droid Sans'" y="0" font-size="2.49999" x="0" text-anchor="middle" class="text" stroke-width="0" fill="#8c8c8c">2</text>
</g>
</g>
</g>
</g>
<line stroke="#787878" id="connector0pin" connectorname="G" x1="0.349998" class="pin" x2="7.54997" y2="14.75" stroke-linecap="round" y1="14.75" stroke-width="0.699997"/>
<g stroke="none" y="14.75" id="connector0terminal" x="0.349998" width="0.000283464" height="0.000283466" class="terminal" stroke-width="0" fill="none"/>
<text stroke="none" font-family="'Droid Sans'" y="13.7001" font-size="2.49999" x="3.94998" text-anchor="middle" class="text" stroke-width="0" fill="#8c8c8c">1</text>
<line stroke="#787878" id="connector2pin" connectorname="S" x1="21.9499" class="pin" x2="21.9499" y2="21.9501" stroke-linecap="round" y1="29.1502" stroke-width="0.699997"/>
<g stroke="none" y="29.1502" id="connector2terminal" x="21.9499" width="0.000283464" height="0.000283466" class="terminal" stroke-width="0" fill="none"/>
<g transform="matrix(1, 0, 0, 1, 20.9, 25.5501)">
<g>
<g transform="rotate(270)">
<g>
<text stroke="none" font-family="'Droid Sans'" y="0" font-size="2.49999" x="0" text-anchor="middle" class="text" stroke-width="0" fill="#8c8c8c">3</text>
</g>
</g>
</g>
</g>
</g>
</g></g><g partID='854379760'><g transform='translate(37.4831,78.2965)' ><g xmlns="http://www.w3.org/2000/svg" id="schematic">
<path stroke="#787878" xmlns="http://www.w3.org/2000/svg" id="connector0pin" d="M7.201,7.575l0,-7.2" stroke-linecap="round" fill="none" stroke-width="0.75"/>
<g y="0" xmlns="http://www.w3.org/2000/svg" id="connector0terminal" x="6.728" width="0.945" height="0.953" fill="none"/>
<path stroke="#000000" xmlns="http://www.w3.org/2000/svg" id="path4098" d="M0.5,7.711L13.9,7.711" stroke-linecap="round" fill="none" stroke-width="0.9"/>
<path stroke="#000000" xmlns="http://www.w3.org/2000/svg" id="path4100" d="M2.732,10.456l8.935,0" stroke-linecap="round" fill="none" stroke-width="0.9"/>
<path stroke="#000000" xmlns="http://www.w3.org/2000/svg" id="path4102" d="M9.431,13.175L4.967,13.175" stroke-linecap="round" fill="none" stroke-width="0.9"/>
</g>
</g></g><g partID='854379960'><g transform='translate(37.5021,0)' ><g id="schematic">
<line stroke="#787878" id="connector0pin" x1="7.2" stroke-linecap="round" stroke-miterlimit="10" x2="7.2" y2="13.98" fill="none" stroke-width="0.75" y1="6.78"/>
<g points="6.817,13.567,7.546,13.546,7.546,14.4,6.859,14.359" id="connector0terminal" fill="none"/>
<path stroke="#000000" d="M0.45,6.564l13.5,0" stroke-linecap="round" fill="none" stroke-width="0.9"/>
<g transform="matrix(1, 0, 0, 1, 1.4985, 4.9878)">
<text font-family="'DroidSans'" id="label" font-size="4.4991">12V</text>
</g>
</g>
</g></g><g partID='854380110'><g transform='translate(0,60.7694)' ><g xmlns="http://www.w3.org/2000/svg" id="schematic">
<rect stroke="none" y="0" xmlns="http://www.w3.org/2000/svg" id="connector0pin" x="25.4728" width="3.6" height="7.2" fill="none" stroke-width="0"/>
<g stroke="none" y="3.6" xmlns="http://www.w3.org/2000/svg" id="connector0terminal" x="29.08" width="0.0072" height="0.0072" fill="none" stroke-width="0"/>
<polygon stroke="#000000" points="28.96,3.6,25.48,0.12,0.12,0.12,0.12,7.08,25.48,7.08" xmlns="http://www.w3.org/2000/svg" fill="white" stroke-width="0.24"/>
</g>
</g></g><g partID='854380111'><g transform='translate(0,60.7694)' ><g xmlns="http://www.w3.org/2000/svg" id="schematicText">
 <text xmlns="http://www.w3.org/2000/svg" y="5.28" font-family="Droid Sans" id="label" x="0.48" font-size="4.8" fill="#000000">led_flasher</text>
</g>
</g></g><g partID='854376920'><line stroke-linecap='round' stroke='#404040' x1='145.484' y1='28.3725' x2='131.084' y2='28.373' stroke-width='0.699998' /></g><g partID='854376990'><line stroke-linecap='round' stroke='#404040' x1='131.084' y1='49.9735' x2='131.084' y2='49.973' stroke-width='0.699998' /></g><g partID='854377660'><line stroke-linecap='round' stroke='#404040' x1='145.484' y1='49.9725' x2='145.484' y2='49.973' stroke-width='0.699998' /></g><g partID='854377730'><line stroke-linecap='round' stroke='#404040' x1='167.084' y1='71.5735' x2='145.484' y2='71.573' stroke-width='0.699998' /></g><g partID='854378740'><line stroke-linecap='round' stroke='#404040' x1='167.084' y1='49.9732' x2='167.084' y2='49.973' stroke-width='0.699998' /></g><g partID='854379210'><line stroke-linecap='round' stroke='#404040' x1='109.484' y1='71.8397' x2='109.484' y2='42.773' stroke-width='0.699998' /></g><g partID='854379140'><line stroke-linecap='round' stroke='#404040' x1='131.084' y1='71.5735' x2='109.484' y2='71.8397' stroke-width='0.699998' /></g><g partID='854379350'><line stroke-linecap='round' stroke='#404040' x1='109.484' y1='21.173' x2='109.484' y2='35.573' stroke-width='0.699998' /></g><g partID='854379280'><line stroke-linecap='round' stroke='#404040' x1='167.084' y1='21.173' x2='109.484' y2='21.173' stroke-width='0.699998' /></g><g partID='854379790'><line stroke-linecap='round' stroke='#404040' x1='44.6836' y1='78.773' x2='44.6836' y2='78.7732' stroke-width='0.699998' /></g><g partID='854379820'><line stroke-linecap='round' stroke='#404040' x1='59.0836' y1='42.773' x2='44.9503' y2='43.0397' stroke-width='0.699998' /></g><g partID='854379890'><line stroke-linecap='round' stroke='#404040' x1='44.9503' y1='43.0397' x2='44.6836' y2='49.973' stroke-width='0.699998' /></g><g partID='854380050'><line stroke-linecap='round' stroke='#404040' x1='44.6836' y1='13.973' x2='44.9503' y2='35.573' stroke-width='0.699998' /></g><g partID='854380080'><line stroke-linecap='round' stroke='#404040' x1='44.9503' y1='35.573' x2='59.0836' y2='35.573' stroke-width='0.699998' /></g><g partID='854379730' id='partLabel'><g transform='translate(49.8195,52.0229)' ><g font-size='5' font-style='normal' font-weight='normal' fill='#000000' font-family="'DroidSans'" id='schematicLabel' fill-opacity='1' stroke='none' ><text x='0' y='3.75'>Q1</text></g></g></g></svg>