<?xml version='1.0' encoding='UTF-8' standalone='no'?>
<!-- Created with Fritzing (http://www.fritzing.org/) -->
<svg xmlns:svg='http://www.w3.org/2000/svg' xmlns='http://www.w3.org/2000/svg' version='1.2' baseProfile='tiny' x='0in' y='0in' width='0.465847in' height='1.58745in' viewBox='0 0 33.541 114.296' >
<g partID='854232550'><g transform='translate(15.121,21.0025)' ><g transform='matrix(0,1,-1,0,0,0)'  ><g id="schematic">
<path fill="#FFFFFF" d="M29.15,0.36c3.977,0,7.2,3.223,7.201,7.199s-3.224,7.2,-7.199,7.201c0,0,-0.001,0,-0.002,0l-14.4,0c-3.977,0.002,-7.2,-3.223,-7.201,-7.199c0,-3.977,3.224,-7.2,7.199,-7.201c0.001,0,0.001,0,0.002,0L29.15,0.36z" stroke-width="0.9" stroke="#000000"/>
<line fill="none" x1="17.63" y2="1.8" stroke-width="0.5" y1="0.36" x2="17.63" stroke-linecap="round" stroke="#000000"/>
<path fill="none" d="M17.63,1.8c0,0.795,0.646,1.44,1.44,1.44" stroke-width="0.5" stroke="#000000"/>
<line fill="none" x1="19.07" y2="3.24" stroke-width="0.5" y1="3.24" x2="25.55" stroke-linecap="round" stroke="#000000"/>
<path fill="none" d="M25.55,3.24c0.598,0,1.081,0.483,1.081,1.08c0,0.596,-0.482,1.08,-1.08,1.08c0,0,0,0,-0.001,0" stroke-width="0.5" stroke="#000000"/>
<line fill="none" x1="18.35" y2="5.4" stroke-width="0.5" y1="5.4" x2="25.55" stroke-linecap="round" stroke="#000000"/>
<path fill="none" d="M18.35,7.56c-0.598,0,-1.08,-0.483,-1.08,-1.08s0.482,-1.08,1.08,-1.08l0,0" stroke-width="0.5" stroke="#000000"/>
<line fill="none" x1="18.35" y2="7.56" stroke-width="0.5" y1="7.56" x2="25.55" stroke-linecap="round" stroke="#000000"/>
<path fill="none" d="M25.55,7.56c0.598,0,1.081,0.483,1.081,1.079c0.001,0.598,-0.481,1.082,-1.079,1.082c-0.001,0,-0.001,0,-0.002,0" stroke-width="0.5" stroke="#000000"/>
<line fill="none" x1="18.35" y2="9.721" stroke-width="0.5" y1="9.721" x2="25.55" stroke-linecap="round" stroke="#000000"/>
<path fill="none" d="M18.35,11.88c-0.598,0,-1.08,-0.483,-1.08,-1.08s0.482,-1.079,1.08,-1.079l0,0" stroke-width="0.5" stroke="#000000"/>
<line fill="none" x1="18.35" y2="11.88" stroke-width="0.5" y1="11.88" x2="24.83" stroke-linecap="round" stroke="#000000"/>
<path fill="none" d="M26.27,13.32c0,-0.795,-0.646,-1.439,-1.44,-1.439l0,0" stroke-width="0.5" stroke="#000000"/>
<line fill="none" x1="26.27" y2="14.76" stroke-width="0.5" y1="13.32" x2="26.27" stroke-linecap="round" stroke="#000000"/>
<line id="connector0pin" fill="none" x1="0.35" y2="7.56" stroke-width="0.75" y1="7.56" x2="7.55" stroke-linecap="round" stroke="#787878"/>
<g id="connector0terminal" fill="none" points="1.137,7.889,0,7.92,0,7.269,1.153,7.264"/>
<g transform="matrix(1, 0, 0, 1, 3.2615, 6.5107)">
<text fill="#8C8C8C" font-size="2.5" font-family="'DroidSans'">1</text>
</g>
<line id="connector1pin" fill="none" x1="43.551" y2="7.56" stroke-width="0.75" y1="7.56" x2="36.35" stroke-linecap="round" stroke="#787878"/>
<g id="connector1terminal" fill="none" points="42.872,7.92,43.9,7.936,43.9,7.217,42.841,7.217"/>
<g transform="matrix(1, 0, 0, 1, 39.2615, 6.5107)">
<text fill="#8C8C8C" font-size="2.5" font-family="'DroidSans'">2</text>
</g>
</g>
</g></g></g><g partID='854232580'><g transform='translate(0.363008,0)' ><g id="schematic">
<line stroke-miterlimit="10" id="connector0pin" fill="none" x1="7.2" y2="13.98" stroke-width="0.75" y1="6.78" x2="7.2" stroke-linecap="round" stroke="#787878"/>
<g id="connector0terminal" fill="none" points="6.817,13.567,7.546,13.546,7.546,14.4,6.859,14.359"/>
<path fill="none" d="M0.45,6.564l13.5,0" stroke-width="0.9" stroke-linecap="round" stroke="#000000"/>
<g transform="matrix(1, 0, 0, 1, 1.4985, 4.9878)">
<text id="label" font-size="4.4991" font-family="'DroidSans'">5V</text>
</g>
</g>
</g></g><g partID='854232610'><g transform='translate(0.344048,99.8962)' ><g id="schematic" xmlns="http://www.w3.org/2000/svg">
<path id="connector0pin" fill="none" d="M7.201,7.575l0,-7.2" xmlns="http://www.w3.org/2000/svg" stroke-width="0.75" stroke-linecap="round" stroke="#787878"/>
<g width="0.945" id="connector0terminal" fill="none" xmlns="http://www.w3.org/2000/svg" x="6.728" height="0.953" y="0"/>
<path id="path4098" fill="none" d="M0.5,7.711L13.9,7.711" xmlns="http://www.w3.org/2000/svg" stroke-width="0.9" stroke-linecap="round" stroke="#000000"/>
<path id="path4100" fill="none" d="M2.732,10.456l8.935,0" xmlns="http://www.w3.org/2000/svg" stroke-width="0.9" stroke-linecap="round" stroke="#000000"/>
<path id="path4102" fill="none" d="M9.431,13.175L4.967,13.175" xmlns="http://www.w3.org/2000/svg" stroke-width="0.9" stroke-linecap="round" stroke="#000000"/>
</g>
</g></g><g partID='854232640'><g transform='translate(10.6407,64.023)' ><g transform='matrix(0,1,-1,0,0,0)'  ><g id="schematic" xmlns="http://www.w3.org/2000/svg">
<line class="other" x1="7.55002" y2="0.216" xmlns="http://www.w3.org/2000/svg" stroke-width="0.432002" y1="3.096" x2="8.63003" stroke-linecap="round" stroke="#000000"/>
<line class="other" x1="8.63003" y2="5.976" xmlns="http://www.w3.org/2000/svg" stroke-width="0.432002" y1="0.216" x2="10.43" stroke-linecap="round" stroke="#000000"/>
<line class="other" x1="10.43" y2="0.216" xmlns="http://www.w3.org/2000/svg" stroke-width="0.432002" y1="5.976" x2="12.23" stroke-linecap="round" stroke="#000000"/>
<line class="other" x1="12.23" y2="5.976" xmlns="http://www.w3.org/2000/svg" stroke-width="0.432002" y1="0.216" x2="14.03" stroke-linecap="round" stroke="#000000"/>
<line class="other" x1="14.03" y2="0.216" xmlns="http://www.w3.org/2000/svg" stroke-width="0.432002" y1="5.976" x2="15.8301" stroke-linecap="round" stroke="#000000"/>
<line class="other" x1="15.8301" y2="5.976" xmlns="http://www.w3.org/2000/svg" stroke-width="0.432002" y1="0.216" x2="17.6301" stroke-linecap="round" stroke="#000000"/>
<line class="other" x1="17.6301" y2="0.216" xmlns="http://www.w3.org/2000/svg" stroke-width="0.432002" y1="5.976" x2="19.4301" stroke-linecap="round" stroke="#000000"/>
<line class="other" x1="19.4301" y2="5.976" xmlns="http://www.w3.org/2000/svg" stroke-width="0.432002" y1="0.216" x2="21.2301" stroke-linecap="round" stroke="#000000"/>
<line class="other" x1="21.2301" y2="3.096" xmlns="http://www.w3.org/2000/svg" stroke-width="0.432002" y1="5.976" x2="21.9501" stroke-linecap="round" stroke="#000000"/>
<line connectorname="2" class="pin" id="connector1pin" x1="29.1502" y2="3.096" xmlns="http://www.w3.org/2000/svg" stroke-width="0.700001" y1="3.096" x2="21.9501" stroke-linecap="round" stroke="#787878"/>
<g class="terminal" width="0.000283466" id="connector1terminal" fill="none" xmlns="http://www.w3.org/2000/svg" x="29.1502" stroke-width="0" height="0.000283465" y="3.096" stroke="none"/>
<text class="text" fill="#8c8c8c" xmlns="http://www.w3.org/2000/svg" x="25.5501" stroke-width="0" font-size="2.50001" text-anchor="middle" font-family="'Droid Sans'" y="2.046" stroke="none">2</text>
<line connectorname="1" class="pin" id="connector0pin" x1="0.350001" y2="3.096" xmlns="http://www.w3.org/2000/svg" stroke-width="0.700001" y1="3.096" x2="7.55002" stroke-linecap="round" stroke="#787878"/>
<g class="terminal" width="0.000283466" id="connector0terminal" fill="none" xmlns="http://www.w3.org/2000/svg" x="0.350001" stroke-width="0" height="0.000283465" y="3.096" stroke="none"/>
<text class="text" fill="#8c8c8c" xmlns="http://www.w3.org/2000/svg" x="3.95001" stroke-width="0" font-size="2.50001" text-anchor="middle" font-family="'Droid Sans'" y="2.046" stroke="none">1</text>
</g>
</g></g></g><g partID='854343420'><g transform='translate(33.541,60.7694)' ><g transform='matrix(-1,0,0,1,0,0)'  ><g id="schematic" xmlns="http://www.w3.org/2000/svg">
<rect width="3.6" id="connector0pin" fill="none" xmlns="http://www.w3.org/2000/svg" x="10.4728" stroke-width="0" height="7.2" y="0" stroke="none"/>
<g width="0.0072" id="connector0terminal" fill="none" xmlns="http://www.w3.org/2000/svg" x="14.08" stroke-width="0" height="0.0072" y="3.6" stroke="none"/>
<polygon fill="white" xmlns="http://www.w3.org/2000/svg" points="13.96,3.6,10.48,0.12,0.12,0.12,0.12,7.08,10.48,7.08" stroke-width="0.24" stroke="#000000"/>
</g>
</g></g></g><g partID='854343421'><g transform='translate(19.461,60.7694)' ><g xmlns="http://www.w3.org/2000/svg" id="schematicText">
 <text xmlns="http://www.w3.org/2000/svg" id="label" fill="#000000" x="0.48" font-size="4.8" font-family="Droid Sans" y="5.28">light</text>
</g>
</g></g><g partID='854270600'><line stroke-linecap='round' stroke='#404040' x1='7.54453' y1='13.973' x2='7.52902' y2='21.579' stroke-width='0.699998' /></g><g partID='854232670'><line stroke-linecap='round' stroke='#404040' x1='7.5445' y1='64.373' x2='7.54455' y2='64.3731' stroke-width='0.699998' /></g><circle  fill="black" cx="7.54455" cy="64.3731" r="1.44" stroke-width="0" stroke="none" /><g partID='854232740'><line stroke-linecap='round' stroke='#404040' x1='7.54453' y1='93.173' x2='7.54453' y2='100.373' stroke-width='0.699998' /></g><g partID='854343450'><line stroke-linecap='round' stroke='#404040' x1='7.54455' y1='64.3731' x2='19.4574' y2='64.373' stroke-width='0.699998' /></g><circle  fill="black" cx="7.54455" cy="64.3731" r="1.44" stroke-width="0" stroke="none" /><g partID='854232550' id='partLabel'><g transform='translate(23.3877,40.9025)' ><g transform='matrix(0,1,-1,0,0,0)'  ><g font-size='5' font-style='normal' font-weight='normal' fill='#000000' font-family="'DroidSans'" id='schematicLabel' fill-opacity='1' stroke='none' ><text x='0' y='3.75'>R2</text></g></g></g></g><g partID='854232640' id='partLabel'><g transform='translate(14.9073,76.4562)' ><g font-size='5' font-style='normal' font-weight='normal' fill='#000000' font-family="'DroidSans'" id='schematicLabel' fill-opacity='1' stroke='none' ><text x='0' y='3.75'>R3</text><text x='0' y='8.75'>10k&#x3a9;</text></g></g></g></svg>